<?xml version="1.0" encoding="UTF-8"?><svg xmlns="http://www.w3.org/2000/svg" viewBox="0 0 170.62 155.84"><defs><style>.d,.e{fill:#1d1d1b;}.e{font-family:Lato-Regular, Lato;font-size:24.71px;}</style></defs><g id="a"/><g id="b"><g id="c"><g><g><path class="d" d="M109.44,40.53c-3.48,0-6.96-.06-10.43,.02-2.31,.05-3.38-.9-3.36-3.26,.05-6.96,.04-13.91,.01-20.87,0-2.46,1.21-3.51,3.6-3.5,6.75,.02,13.5,.03,20.26-.03,2.59-.02,3.72,1.16,3.71,3.72-.04,6.75-.04,13.5,0,20.26,.02,2.53-.98,3.78-3.66,3.69-3.37-.12-6.75-.03-10.13-.03Z"/><path class="d" d="M69.67,127.03c-6.45,0-12.9-.01-19.35,0-2.39,0-4.12-1.27-4.52-3.38-.24-1.31,.58-3.07,1.43-4.25,.51-.7,2.01-.93,3.07-.94,13.1-.06,26.2-.06,39.31-.03,2.95,0,4.69,1.55,4.82,4.02,.13,2.39-1.86,4.47-4.81,4.52-6.65,.12-13.31,.04-19.96,.04v.02Z"/><path class="d" d="M150.53,30.06c-5.07,0-5.12-.05-5.11-5.44,0-4.93,.12-5.04,5.22-5.03,5.25,0,5.26,.02,5.25,5.61-.01,4.8-.08,4.86-5.37,4.86Z"/><path class="d" d="M85.12,5.08C85.13,.07,85.2,0,90.27,0c4.96,0,5.3,.36,5.28,5.45-.02,4.85-.22,5.01-5.97,4.99q-4.47-.02-4.46-5.37Z"/><path class="d" d="M147.19,53.41q0-4.94,5.23-4.93c5.02,0,5.26,.25,5.24,5.44,0,2.36,.35,4.95-3.29,4.95-7.18,.01-7.18,.03-7.18-5.47Z"/><path class="d" d="M149.27,79.32q-5.12,0-5.13-5.03c0-4.54,.53-5.26,3.88-5.28q6.63-.05,6.63,5.12c0,5.16-.04,5.19-5.38,5.2Z"/><path class="d" d="M165.38,44.95q-5.24,0-5.23-5.25,0-4.79,5.41-4.78,5.07,.01,5.07,5.11,0,4.93-5.24,4.93Z"/><path class="d" d="M131.65,82.85q5.21,0,5.21,4.93,0,5.09-5.04,5.09c-5.39,0-5.42-.03-5.42-5.13q0-4.89,5.25-4.89Z"/></g><text class="e" transform="translate(0 151.32)"><tspan x="0" y="0">gestsoftware</tspan></text></g><g><path class="d" d="M69.23,55.28c-1.45-.58-2.9-.59-4.35-.04-2.95,1.13-3.79,4.17-3.02,6.8,.01,.04,.02,.08,.03,.13,.08,.27,.19,.53,.33,.79,.16,.18,.31,.38,.45,.59,.24,.37,.59,.68,.95,.95,1.08,.82,2.32,1.13,3.66,1.08,1.23-.04,2.34-.41,3.3-1.18,1.8-1.42,2.24-3.82,1.65-5.88-.45-1.57-1.48-2.64-3-3.24Z"/><path class="d" d="M126.9,79.9c2.46,.06,4.92-.04,7.38,0,2.21,.04,3.15-.99,3.12-3.17-.05-3.79-.06-7.58,0-11.37,.04-2.29-.86-3.58-3.26-3.32-3.1,.33-3.62-1.41-3.46-3.94,.16-2.46-.7-5.5,3.51-5.23,2.16,.14,3.21-.88,3.19-3.1-.04-6.56,.07-13.11-.06-19.67-.08-3.8-1.8-6.93-4.96-9.07-.92-.62-2.21-.7-3.33-1.03-.29,1.03-.83,2.05-.84,3.09-.08,6.35-.09,12.7-.03,19.05,.02,2.34-.94,3.32-3.29,3.31-10.24-.05-20.49-.06-30.73,0-2.53,.02-3.47-1.06-3.43-3.51,.08-5.53,.02-11.06,.02-16.6,0-6.49,0-6.38-6.4-6.42-2.92-.02-4.35,1.12-3.96,3.97,.39,2.89-.92,3.47-3.47,3.42-4.78-.1-5.21-.15-5.11-3.55,.09-3.03-1.17-3.85-4.01-3.84-17.82,.07-35.65-.02-53.47,0-7.29,.01-11.59,4.41-11.6,11.74-.02,21-.02,42,0,63,0,7.22,4.24,11.44,11.45,11.45,12.8,.02,25.61,0,38.41,0h2.44c1.04,3.4,1.66,6.28,2.85,8.9,.45,.99,2.21,1.9,3.41,1.95,5.83,.2,11.68,.27,17.51-.03,1.34-.07,3.15-1.5,3.78-2.78,1.16-2.33,1.6-5.02,2.48-8.03,1.22,0,2.43,0,3.65,0,12.6-.02,25.2-.02,37.8-.08,4.56-.02,7.74-2.34,9.74-6.31,.92-1.83,.8-3.16-1.85-3.11-2.55,.04-5.1-.28-7.66-.31-1.91-.02-2.84-.8-2.81-2.75,.04-3.28,.06-6.56-.01-9.83-.05-2.17,1-2.89,3.02-2.84Zm-80.91-5.21c-.2-.06-.34-.1-.47-.15-3.69-1.47-7.38-2.94-11.07-4.39-.31-.12-.42-.28-.4-.61,.03-.65,.03-1.3,0-1.95-.01-.31,.09-.46,.38-.57,3.19-1.26,6.38-2.53,9.57-3.8,.63-.25,1.27-.5,1.99-.79,0,.58,0,1.11,0,1.64q0,1.11-1.01,1.51c-2.38,.94-4.75,1.89-7.12,2.83-.1,.04-.2,.09-.4,.17,.24,.1,.39,.17,.55,.23,2.52,1.01,5.05,2.02,7.58,3.01,.3,.12,.42,.26,.41,.6-.03,.74,0,1.48,0,2.28Zm28.04,8.92c-1.1,0-1.14-2.19-3.59-2.19-1.31,0-2.67,.53-4.12,1.1-1.4,.53-2.89,1.1-4.56,1.1-3.46,0-6.31-2.02-6.31-5.61,0-4.33,3.56-5.35,4.67-6.3,.16-.14,.27-.28,.31-.43l3.69,2.17c-1.52,.54-2.75,1.46-2.75,2.28s.7,1.49,1.49,1.49c1.84,0,5.48-2.19,9.6-2.19,1.01,0,4.64,.96,4.64,2.54,0,1.14-1.75,6.05-3.07,6.05Zm.13-15.2c-.6,.56-1.27,1.02-2.01,1.39-.3,.16-.64,.33-1.01,.48-.04,.03-.1,.06-.16,.06-.6,.24-1.28,.44-2.01,.55-.07,.02-.17,.03-.31,.04-.16,.02-.33,.03-.5,.04-.41,.04-.83,.08-1.24,.07-3.12-.05-5.76-1.2-7.9-3.48-1.43-1.52-2.32-3.33-2.71-5.37-.05-.28-.09-.56-.13-.84h-.04s-.31-1.9,.55-4.68h.02c.36-1.1,.92-2.12,1.64-3.06,1.48-1.92,3.38-3.22,5.71-3.89,.88-.25,1.78-.4,2.69-.4,3.57,0,7.14,0,10.71,0,.39,0,.41,0,.38,.4-.11,1.47-.74,2.69-1.85,3.64-.22,.19-.26,.31-.08,.55,1.13,1.57,1.79,3.32,1.94,5.25,.29,3.69-1.02,6.74-3.7,9.23Zm21.74-10.24c-2.07,5.55-4.15,11.1-6.21,16.66-.12,.33-.29,.45-.63,.44-.73-.03-1.46,0-2.27,0,1.22-3.27,2.41-6.44,3.6-9.61,.94-2.51,1.88-5.03,2.81-7.54,.11-.3,.25-.43,.59-.42,.73,.03,1.46,0,2.28,0-.07,.19-.11,.33-.17,.48Zm12.88,11.8c0,.16-.15,.4-.29,.46-3.79,1.53-7.58,3.03-11.38,4.54-.06,.02-.12,.03-.26,.05,0-.87-.01-1.71,.02-2.54,0-.11,.23-.25,.38-.31,2.54-1.02,5.08-2.03,7.62-3.04,.15-.06,.29-.12,.54-.23-2.75-1.09-5.4-2.15-8.05-3.19-.4-.16-.54-.35-.52-.78,.04-.7,.01-1.4,.01-2.16,.21,.07,.37,.12,.53,.18,3.67,1.47,7.34,2.94,11.02,4.39,.28,.11,.41,.23,.4,.56-.03,.68,.02,1.37-.02,2.05Z"/></g></g></g></svg>